<svg width="32" height="32" viewBox="0 0 32 32" fill="none" xmlns="http://www.w3.org/2000/svg">
  <!-- Rounded square border -->
  <rect x="1" y="1" width="30" height="30" rx="6" fill="white" stroke="#e2e8f0" stroke-width="2"/>
  
  <!-- Skull Icon -->
  <path d="M16 7C12.134 7 9 10.134 9 14C9 15.895 9.9 17.59 11.31 18.67C11.46 18.79 11.53 18.97 11.51 19.16L11.21 21.11C11.15 21.65 11.59 22.1 12.12 22.06L14.25 21.87C14.39 21.86 14.53 21.91 14.63 22.01C15.05 22.44 15.5 22.79 16 23.06C16.5 22.79 16.95 22.44 17.38 22.01C17.47 21.91 17.61 21.86 17.75 21.87L19.88 22.06C20.41 22.1 20.85 21.65 20.79 21.11L20.5 19.16C20.47 18.98 20.54 18.79 20.7 18.67C22.1 17.59 23 15.89 23 14C23 10.134 19.866 7 16 7Z" stroke="#222" stroke-width="1.5" stroke-linecap="round" stroke-linejoin="round"/>
  
  <!-- Skull Eyes -->
  <circle cx="13.5" cy="14.5" r="1.25" fill="#222"/>
  <circle cx="18.5" cy="14.5" r="1.25" fill="#222"/>
  
  <!-- Skull Nose -->
  <path d="M16 17C15.44 17 15 16.55 15 16C15 15.45 15.45 15 16 15C16.55 15 17 15.45 17 16C17 16.55 16.56 17 16 17Z" fill="#222"/>
</svg> 